HIERARCHY
ROOT Hips
{
  OFFSET 5.84602e-005 68.8428 3.50346
  CHANNELS 6 Xposition Yposition Zposition Zrotation Xrotation Yrotation
  JOINT Spine
  {
    OFFSET 0 8.597 -4.6522
    CHANNELS 3 Zrotation Xrotation Yrotation
    JOINT Spine1
    {
      OFFSET 0 7.8454 0.4098
      CHANNELS 3 Zrotation Xrotation Yrotation
      JOINT Spine2
      {
        OFFSET 0 9.7078 -2.1609
        CHANNELS 3 Zrotation Xrotation Yrotation
        JOINT Neck
        {
          OFFSET 0 21.8761 -0.4549
          CHANNELS 3 Zrotation Xrotation Yrotation
          JOINT Head
          {
            OFFSET 0 12.3537 3.3602
            CHANNELS 3 Zrotation Xrotation Yrotation
            End Site
            {
              OFFSET 0.0001 18.9506 0.5657
            }
          }
        }
        JOINT LeftShoulder
        {
          OFFSET 2.2086 21.1115 7.2329
          CHANNELS 3 Zrotation Xrotation Yrotation
          JOINT LeftArm
          {
            OFFSET 13.1193 3.0282 -4.8998
            CHANNELS 3 Zrotation Xrotation Yrotation
            JOINT LeftForeArm
            {
              OFFSET 27.4081 -0.0973053 -0.2375
              CHANNELS 3 Zrotation Xrotation Yrotation
              JOINT LeftHand
              {
                OFFSET 22.8641 0.0662994 -0.1369
                CHANNELS 3 Zrotation Xrotation Yrotation
                JOINT LeftHandIndex1
                {
                  OFFSET 8.8614 0.775009 2.4612
                  CHANNELS 3 Zrotation Xrotation Yrotation
                  JOINT LeftHandIndex2
                  {
                    OFFSET 3.3146 -0.808304 0.5841
                    CHANNELS 3 Zrotation Xrotation Yrotation
                    JOINT LeftHandIndex3
                    {
                      OFFSET 2.2628 -0.552002 0.3989
                      CHANNELS 3 Zrotation Xrotation Yrotation
                      End Site
                      {
                        OFFSET 1.6102 -0.4807 0.2612
                      }
                    }
                  }
                }
                JOINT LeftHandMiddle1
                {
                  OFFSET 8.9937 0.895004 0.2143
                  CHANNELS 3 Zrotation Xrotation Yrotation
                  JOINT LeftHandMiddle2
                  {
                    OFFSET 4.0984 0.0113983 -0.0242
                    CHANNELS 3 Zrotation Xrotation Yrotation
                    JOINT LeftHandMiddle3
                    {
                      OFFSET 2.2716 0.00689697 -0.0138001
                      CHANNELS 3 Zrotation Xrotation Yrotation
                      End Site
                      {
                        OFFSET 2.0404 -0.1441 0.0027
                      }
                    }
                  }
                }
                JOINT LeftHandRing1
                {
                  OFFSET 8.5234 0.597198 -2.0164
                  CHANNELS 3 Zrotation Xrotation Yrotation
                  JOINT LeftHandRing2
                  {
                    OFFSET 3.7188 -0.188293 -0.2328
                    CHANNELS 3 Zrotation Xrotation Yrotation
                    JOINT LeftHandRing3
                    {
                      OFFSET 2.1191 -0.106598 -0.1332
                      CHANNELS 3 Zrotation Xrotation Yrotation
                      End Site
                      {
                        OFFSET 1.8737 -0.2304 -0.0886
                      }
                    }
                  }
                }
                JOINT LeftHandPinky1
                {
                  OFFSET 7.9094 -0.601089 -3.4825
                  CHANNELS 3 Zrotation Xrotation Yrotation
                  JOINT LeftHandPinky2
                  {
                    OFFSET 2.2874 -0.477005 -0.6314
                    CHANNELS 3 Zrotation Xrotation Yrotation
                    JOINT LeftHandPinky3
                    {
                      OFFSET 1.6774 -0.349396 -0.4633
                      CHANNELS 3 Zrotation Xrotation Yrotation
                      End Site
                      {
                        OFFSET 1.4888 -0.4091 -0.3416
                      }
                    }
                  }
                }
                JOINT LeftHandThumb1
                {
                  OFFSET 1.833 -1.3875 1.3896
                  CHANNELS 3 Zrotation Xrotation Yrotation
                  JOINT LeftHandThumb2
                  {
                    OFFSET 3.4129 -1.121 2.5732
                    CHANNELS 3 Zrotation Xrotation Yrotation
                    JOINT LeftHandThumb3
                    {
                      OFFSET 2.2474 -0.804199 1.6192
                      CHANNELS 3 Zrotation Xrotation Yrotation
                      End Site
                      {
                        OFFSET 1.6527 -0.5689 1.1317
                      }
                    }
                  }
                }
              }
            }
          }
        }
        JOINT RightShoulder
        {
          OFFSET -2.2086 21.1115 7.2329
          CHANNELS 3 Zrotation Xrotation Yrotation
          JOINT RightArm
          {
            OFFSET -13.1216 3.0287 -4.9007
            CHANNELS 3 Zrotation Xrotation Yrotation
            JOINT RightForeArm
            {
              OFFSET -27.4081 -0.0973053 -0.2375
              CHANNELS 3 Zrotation Xrotation Yrotation
              JOINT RightHand
              {
                OFFSET -22.8641 0.0664063 -0.1369
                CHANNELS 3 Zrotation Xrotation Yrotation
                JOINT RightHandIndex1
                {
                  OFFSET -8.8614 0.774994 2.4612
                  CHANNELS 3 Zrotation Xrotation Yrotation
                  JOINT RightHandIndex2
                  {
                    OFFSET -3.3146 -0.808304 0.5841
                    CHANNELS 3 Zrotation Xrotation Yrotation
                    JOINT RightHandIndex3
                    {
                      OFFSET -2.2628 -0.552002 0.3989
                      CHANNELS 3 Zrotation Xrotation Yrotation
                      End Site
                      {
                        OFFSET -1.6102 -0.4807 0.2612
                      }
                    }
                  }
                }
                JOINT RightHandMiddle1
                {
                  OFFSET -8.9937 0.894989 0.2143
                  CHANNELS 3 Zrotation Xrotation Yrotation
                  JOINT RightHandMiddle2
                  {
                    OFFSET -4.0984 0.0113983 -0.0242
                    CHANNELS 3 Zrotation Xrotation Yrotation
                    JOINT RightHandMiddle3
                    {
                      OFFSET -2.2716 0.00691223 -0.0138001
                      CHANNELS 3 Zrotation Xrotation Yrotation
                      End Site
                      {
                        OFFSET -2.0404 -0.1441 0.0027
                      }
                    }
                  }
                }
                JOINT RightHandRing1
                {
                  OFFSET -8.5234 0.597198 -2.0164
                  CHANNELS 3 Zrotation Xrotation Yrotation
                  JOINT RightHandRing2
                  {
                    OFFSET -3.7188 -0.188309 -0.2328
                    CHANNELS 3 Zrotation Xrotation Yrotation
                    JOINT RightHandRing3
                    {
                      OFFSET -2.1191 -0.106598 -0.1332
                      CHANNELS 3 Zrotation Xrotation Yrotation
                      End Site
                      {
                        OFFSET -1.8737 -0.2304 -0.0886
                      }
                    }
                  }
                }
                JOINT RightHandPinky1
                {
                  OFFSET -7.9094 -0.601105 -3.4825
                  CHANNELS 3 Zrotation Xrotation Yrotation
                  JOINT RightHandPinky2
                  {
                    OFFSET -2.2874 -0.477005 -0.6314
                    CHANNELS 3 Zrotation Xrotation Yrotation
                    JOINT RightHandPinky3
                    {
                      OFFSET -1.6774 -0.349396 -0.4633
                      CHANNELS 3 Zrotation Xrotation Yrotation
                      End Site
                      {
                        OFFSET -1.4888 -0.4091 -0.3416
                      }
                    }
                  }
                }
                JOINT RightHandThumb1
                {
                  OFFSET -1.833 -1.38751 1.3896
                  CHANNELS 3 Zrotation Xrotation Yrotation
                  JOINT RightHandThumb2
                  {
                    OFFSET -3.41299 -1.12099 2.5732
                    CHANNELS 3 Zrotation Xrotation Yrotation
                    JOINT RightHandThumb3
                    {
                      OFFSET -2.24741 -0.804108 1.6192
                      CHANNELS 3 Zrotation Xrotation Yrotation
                      End Site
                      {
                        OFFSET -1.6527 -0.5689 1.1317
                      }
                    }
                  }
                }
              }
            }
          }
        }
      }
    }
  }
  JOINT RightUpLeg
  {
    OFFSET -9.1966 3.8861 -0.7581
    CHANNELS 3 Zrotation Xrotation Yrotation
    JOINT RightLeg
    {
      OFFSET -0.7359 -41.0265 0
      CHANNELS 3 Zrotation Xrotation Yrotation
      JOINT RightFoot
      {
        OFFSET 0 -40.2855 0
        CHANNELS 3 Zrotation Xrotation Yrotation
        JOINT RightToeBase
        {
          OFFSET 0 -5.6122 11.7359
          CHANNELS 3 Zrotation Xrotation Yrotation
          End Site
          {
            OFFSET 0 0 7.8731
          }
        }
      }
    }
  }
  JOINT LeftUpLeg
  {
    OFFSET 9.1965 3.8864 -0.7581
    CHANNELS 3 Zrotation Xrotation Yrotation
    JOINT LeftLeg
    {
      OFFSET 0.7359 -41.0268 0
      CHANNELS 3 Zrotation Xrotation Yrotation
      JOINT LeftFoot
      {
        OFFSET 0 -40.2855 0
        CHANNELS 3 Zrotation Xrotation Yrotation
        JOINT LeftToeBase
        {
          OFFSET 0 -5.6122 11.7359
          CHANNELS 3 Zrotation Xrotation Yrotation
          End Site
          {
            OFFSET 0 0 7.8731
          }
        }
      }
    }
  }
}
MOTION
Frames:	6
Frame Time:	0.0333333
5.84602e-005 68.8428 3.50346 0 0 -0 0 0 -0 0 0 -0 0 0 -0 0 0 -0 0 0 -0 0 0 -0 0 0 -0 0 0 -0 0 0 -0 0 0 -0 0 0 -0 0 0 -0 0 0 -0 -0.0146107 -8.87603e-005 -2.63497e-007 2.99804e-018 -2.42657e-020 -1.42182e-022 0 0 -0 -0.0187562 -0.001176 5.858e-005 5.06224e-018 3.88251e-019 1.21329e-020 0 0 -0 -0.012269 -0.00324817 0.000675346 -1.74678e-018 3.88251e-019 -0 0 0 -0 0 0 -0 0 0 -0 0 0 -0 0 0 -0 0 0 -0 0 0 -0 0 0 -0 0 0 -0 0 0 -0 0 0 -0 0.0149955 -9.10982e-005 2.64101e-007 -9.69331e-018 1.21329e-020 -4.7394e-023 0 0 -0 0.0189956 -0.00119102 -5.96516e-005 -5.41541e-019 0 2.42657e-020 0 0 -0 0.0122698 -0.00324857 -0.000673756 -2.00796e-019 0 -1.94126e-019 0 0 -0 0 0 -0 0 0 -0 3.39842 1.33031 -0.0637918 -5.65207e-008 0.834868 -0.000436188 -3.39935 -2.16518 -0.0642563 -8.89002e-024 -1.18485e-023 -1.48106e-024 -3.39844 1.35642 0.0640283 -3.18788e-007 0.782166 -0.000588827 3.39931 -2.13858 0.0634662 1.1399e-023 0 -0 
8.53394e-005 69.2936 3.50061 0 0 -0 -0.347404 0.541695 -0.00473083 -0.694809 1.08341 -0.00617721 -0.694809 1.08341 -0.00617721 -5.07908 9.96217 -10.1221 -9.31466 -14.8131 -2.40405 1.5613 -2.40749 -41.3285 -11.3399 -29.0652 -36.111 13.7853 -5.27381 -46.8256 -39.3625 -45.7306 -55.6753 -1.05536e-007 -1.66647e-007 -3.7851e-007 5.2768e-008 8.33234e-008 1.89255e-007 -3.16608e-007 -4.9994e-007 -1.13553e-006 -1.05536e-007 -1.66647e-007 -3.7851e-007 -0.0146376 -8.72425e-005 -3.72417e-006 4.02978e-007 -1.84603e-007 -1.53623e-006 -1.05536e-007 -1.66647e-007 -3.7851e-007 -0.0187961 -0.00118146 6.02683e-005 1.99151e-006 -8.73592e-007 -1.5793e-006 -1.05536e-007 -1.66647e-007 -3.7851e-007 -0.0121389 -0.00321264 0.000671396 -3.16645e-007 -4.99819e-007 -1.13557e-006 -1.05536e-007 -1.66647e-007 -3.7851e-007 5.2768e-008 8.33234e-008 1.89255e-007 -3.16608e-007 -4.9994e-007 -1.13553e-006 -1.56454 -2.40867 41.3247 11.3352 -29.0667 36.1061 -13.7887 -5.27477 46.8217 39.357 -45.7337 55.6696 -5.26271e-008 7.75479e-008 -1.91696e-007 -5.26271e-008 7.75478e-008 -1.91696e-007 -2.63136e-007 3.87739e-007 -9.58478e-007 -5.26271e-008 7.75479e-008 -1.91696e-007 0.0149664 -8.8692e-005 2.72441e-006 -2.6314e-007 3.87614e-007 -9.58528e-007 -5.26271e-008 7.75479e-008 -1.91696e-007 0.0189524 -0.00118641 -5.98575e-005 -2.6315e-007 3.87581e-007 -9.58539e-007 -5.26271e-008 7.75479e-008 -1.91696e-007 0.0122469 -0.00324468 -0.00067508 -2.63168e-007 3.87636e-007 -9.58511e-007 -5.26271e-008 7.75479e-008 -1.91696e-007 -5.26271e-008 7.75478e-008 -1.91696e-007 -2.63136e-007 3.87739e-007 -9.58478e-007 -2.9675 -4.02197 -0.639956 1.8981 11.4467 -0.437943 -3.95618 -0.672849 3.02178 1.49089e-016 7.95139e-016 -0 2.96389 -4.02075 0.63625 -1.90132 11.4447 0.434546 3.95292 -0.671688 -3.02535 -1.98785e-016 -2.38542e-015 -7.95139e-016 
8.53394e-005 69.2936 3.50061 0 0 -0 -0.347404 0.541695 -0.00473083 -0.694809 1.08341 -0.00617721 -0.694809 1.08341 -0.00617721 -5.25529 9.95939 -10.0916 -9.31465 -14.8131 -2.67816 1.5613 -2.40749 -41.3285 -11.3399 -29.0652 -36.111 13.7853 -5.27381 -46.8256 -39.3625 -45.7306 -55.6753 -1.05536e-007 -1.66647e-007 -3.7851e-007 5.2768e-008 8.33234e-008 1.89255e-007 -3.16608e-007 -4.9994e-007 -1.13553e-006 -1.05536e-007 -1.66647e-007 -3.7851e-007 -0.0146376 -8.72425e-005 -3.72417e-006 4.02978e-007 -1.84603e-007 -1.53623e-006 -1.05536e-007 -1.66647e-007 -3.7851e-007 -0.0187961 -0.00118146 6.02683e-005 1.99151e-006 -8.73592e-007 -1.5793e-006 -1.05536e-007 -1.66647e-007 -3.7851e-007 -0.0121389 -0.00321264 0.000671396 -3.16645e-007 -4.99819e-007 -1.13557e-006 -1.05536e-007 -1.66647e-007 -3.7851e-007 5.2768e-008 8.33234e-008 1.89255e-007 -3.16608e-007 -4.9994e-007 -1.13553e-006 -1.56454 -2.40867 41.3247 11.3352 -29.0667 36.1061 -13.7887 -5.27477 46.8217 39.357 -45.7337 55.6696 5.26271e-008 -7.75478e-008 1.91696e-007 -1.05254e-007 1.55096e-007 -3.83391e-007 5.26271e-008 -7.75479e-008 1.91696e-007 5.26271e-008 -7.75478e-008 1.91696e-007 0.0149665 -9.02257e-005 2.10421e-006 5.2628e-008 -7.75228e-008 1.91706e-007 5.26271e-008 -7.75478e-008 1.91696e-007 0.0189493 -0.00118649 -5.90155e-005 5.263e-008 -7.75162e-008 1.91708e-007 5.26271e-008 -7.75478e-008 1.91696e-007 0.0122434 -0.00324406 -0.000675963 5.26336e-008 -7.75272e-008 1.91702e-007 5.26271e-008 -7.75478e-008 1.91696e-007 -1.05254e-007 1.55096e-007 -3.83391e-007 5.26271e-008 -7.75479e-008 1.91696e-007 -2.9675 -4.02197 -0.639956 1.8981 11.4467 -0.437943 -3.95618 -0.672849 3.02178 1.49089e-016 7.95139e-016 -0 2.96389 -4.02075 0.63625 -1.90132 11.4447 0.434546 3.95292 -0.671688 -3.02535 -1.98785e-016 -2.38542e-015 -7.95139e-016 
8.53404e-005 69.2936 3.50061 0 0 -0 -0.347404 0.541695 -0.00473083 -0.694809 1.08341 -0.00617722 -0.694809 1.08341 -0.00617722 -5.43155 9.95657 -10.0611 -9.31463 -14.8131 -2.95238 1.5613 -2.40749 -41.3285 -11.3399 -29.0652 -36.111 13.7853 -5.2738 -46.8256 -39.3625 -45.7306 -55.6753 2.11072e-007 3.33294e-007 7.5702e-007 2.36325e-006 -2.90438e-007 -2.54359e-007 7.17593e-007 3.15129e-007 -4.00673e-007 2.11072e-007 3.33294e-007 7.5702e-007 -0.0146252 -9.09689e-005 -2.15771e-006 7.19587e-007 3.15193e-007 -4.00633e-007 2.11072e-007 3.33294e-007 7.5702e-007 -0.0187891 -0.00117667 6.20843e-005 -2.38542e-015 -4.45278e-014 -0 2.11072e-007 3.33294e-007 7.5702e-007 -0.0121424 -0.00321476 0.000671393 -0 0 1.59028e-015 2.11072e-007 3.33294e-007 7.5702e-007 2.36325e-006 -2.90438e-007 -2.54359e-007 7.17593e-007 3.15129e-007 -4.00673e-007 -1.56454 -2.40867 41.3247 11.3352 -29.0667 36.1061 -13.7887 -5.27477 46.8217 39.357 -45.7336 55.6696 2.26045e-006 5.38242e-007 -1.41066e-006 5.26271e-008 -7.75478e-008 1.91696e-007 3.85667e-007 1.66239e-007 -9.64934e-007 2.26045e-006 5.38242e-007 -1.41066e-006 0.0149415 -9.24384e-005 -2.23783e-006 2.25959e-006 5.38064e-007 -1.41074e-006 2.26045e-006 5.38242e-007 -1.41066e-006 0.0189638 -0.00119153 -5.845e-005 2.25934e-006 5.38078e-007 -1.41077e-006 2.26045e-006 5.38242e-007 -1.41066e-006 0.0122582 -0.00324528 -0.000671622 2.2597e-006 5.38291e-007 -1.41075e-006 2.26045e-006 5.38242e-007 -1.41066e-006 5.26271e-008 -7.75478e-008 1.91696e-007 3.85667e-007 1.66239e-007 -9.64934e-007 -2.9675 -4.02197 -0.639956 1.8981 11.4467 -0.437943 -3.95618 -0.672849 3.02178 1.49089e-016 7.95139e-016 -0 2.96389 -4.02075 0.63625 -1.90132 11.4447 0.434547 3.95292 -0.671688 -3.02535 -8.94531e-016 1.59028e-015 -1.98785e-015 
8.53394e-005 69.2936 3.50061 0 0 -0 -0.347404 0.541695 -0.00473082 -0.694809 1.08341 -0.00617719 -0.694809 1.08341 -0.00617719 -5.60782 9.95364 -10.0306 -9.31461 -14.8131 -3.2267 1.5613 -2.40749 -41.3285 -11.3399 -29.0652 -36.111 13.7853 -5.27382 -46.8256 -39.3626 -45.7306 -55.6753 5.2768e-008 8.33234e-008 1.89255e-007 3.69376e-007 5.83264e-007 1.32478e-006 5.2768e-008 8.33234e-008 1.89255e-007 5.2768e-008 8.33234e-008 1.89255e-007 -0.0146574 -8.582e-005 2.81694e-006 5.27686e-008 8.32992e-008 1.89265e-007 5.2768e-008 8.33234e-008 1.89255e-007 -0.0187932 -0.00118122 6.06675e-005 5.27705e-008 8.32924e-008 1.89268e-007 5.2768e-008 8.33234e-008 1.89255e-007 -0.0121427 -0.00321375 0.000669592 5.27742e-008 8.33031e-008 1.89262e-007 5.2768e-008 8.33234e-008 1.89255e-007 3.69376e-007 5.83264e-007 1.32478e-006 5.2768e-008 8.33234e-008 1.89255e-007 -1.56454 -2.40867 41.3247 11.3352 -29.0667 36.1061 -13.7887 -5.27476 46.8217 39.357 -45.7337 55.6696 -5.26271e-008 7.75479e-008 -1.91696e-007 -1.05254e-007 1.55096e-007 -3.83391e-007 -5.26272e-008 7.75478e-008 -1.91696e-007 -5.26271e-008 7.75479e-008 -1.91696e-007 0.0149408 -9.00137e-005 1.69723e-006 -5.2628e-008 7.75229e-008 -1.91706e-007 -5.26271e-008 7.75479e-008 -1.91696e-007 0.0189331 -0.00118626 -6.13734e-005 -5.263e-008 7.75162e-008 -1.91708e-007 -5.26271e-008 7.75479e-008 -1.91696e-007 0.0122688 -0.00324687 -0.000677944 -5.26336e-008 7.75271e-008 -1.91702e-007 -5.26271e-008 7.75479e-008 -1.91696e-007 -1.05254e-007 1.55096e-007 -3.83391e-007 -5.26272e-008 7.75478e-008 -1.91696e-007 -2.9675 -4.02197 -0.639956 1.8981 11.4467 -0.437943 -3.95618 -0.672849 3.02179 -4.96962e-017 -2.38542e-015 -3.97569e-016 2.96389 -4.02075 0.63625 -1.90132 11.4447 0.434546 3.95292 -0.671688 -3.02535 -1.98785e-016 -2.38542e-015 -7.95139e-016 
8.53394e-005 69.2936 3.50061 0 0 -0 -0.347403 0.541695 -0.00473082 -0.694809 1.08341 -0.00617719 -0.694808 1.08341 -0.00617719 -5.78411 9.95067 -10.0001 -9.3146 -14.8131 -3.50112 1.56129 -2.40749 -41.3285 -11.3399 -29.0652 -36.111 13.7853 -5.2738 -46.8256 -39.3625 -45.7306 -55.6753 1.05536e-007 1.66647e-007 3.7851e-007 5.2768e-008 8.33234e-008 1.89255e-007 -1.05536e-007 -1.66647e-007 -3.7851e-007 1.05536e-007 1.66647e-007 3.7851e-007 -0.0146266 -8.76628e-005 8.38385e-007 -1.05537e-007 -1.66599e-007 -3.78531e-007 1.05536e-007 1.66647e-007 3.7851e-007 -0.0187923 -0.00117914 6.01677e-005 2.2026e-006 -5.40424e-007 -8.22226e-007 1.05536e-007 1.66647e-007 3.7851e-007 -0.0121524 -0.00321352 0.000667567 -1.05548e-007 -1.66606e-007 -3.78524e-007 1.05536e-007 1.66647e-007 3.7851e-007 5.2768e-008 8.33234e-008 1.89255e-007 -1.05536e-007 -1.66647e-007 -3.7851e-007 -1.56454 -2.40867 41.3247 11.3352 -29.0667 36.1061 -13.7887 -5.27476 46.8217 39.357 -45.7337 55.6696 2.38542e-015 3.18055e-015 1.59028e-015 -5.26271e-008 7.75479e-008 -1.91696e-007 2.10509e-007 -3.10191e-007 7.66782e-007 2.38542e-015 3.18055e-015 1.59028e-015 0.0149408 -8.99366e-005 1.50295e-006 2.10512e-007 -3.10091e-007 7.66822e-007 2.38542e-015 3.18055e-015 1.59028e-015 0.0189303 -0.00118752 -5.70773e-005 1.35282e-006 -5.20685e-007 1.78847e-007 2.38542e-015 3.18055e-015 1.59028e-015 0.0122502 -0.0032449 -0.000675156 2.10534e-007 -3.10109e-007 7.66809e-007 2.38542e-015 3.18055e-015 1.59028e-015 -5.26271e-008 7.75479e-008 -1.91696e-007 2.10509e-007 -3.10191e-007 7.66782e-007 -2.9675 -4.02197 -0.639956 1.8981 11.4467 -0.437943 -3.95618 -0.672849 3.02178 1.49089e-016 7.95139e-016 -0 2.96389 -4.02075 0.63625 -1.90132 11.4447 0.434546 3.95292 -0.671688 -3.02535 1.14301e-015 7.95139e-016 3.97569e-016 
